<?xml version="1.0" ?>
<svg width="800" height="300" viewBox="0 0 800 300" xmlns="http://www.w3.org/2000/svg">
<style>
    .grid { stroke: #e8e8e8; stroke-width: 1; stroke-dasharray: 2,2; }
    .trigger-line { stroke: #2E86C1; stroke-width: 2.5; fill: none; }
    .spark-line { stroke: #E74C3C; stroke-width: 2.5; fill: none; }
    .label { font-family: Arial, sans-serif; font-size: 12px; font-weight: bold; }
    .title { font-family: Arial, sans-serif; font-size: 18px; font-weight: bold; }
    .timing-label { font-family: Arial, sans-serif; font-size: 11px; fill: #2ECC71; font-weight: bold; }
    .axis-label { font-family: Arial, sans-serif; font-size: 10px; }
</style>
<rect width="800" height="300" fill="white"/>

<!-- Grid lines -->
<line x1="80" y1="50" x2="80" y2="250" class="grid"/>
<line x1="240" y1="50" x2="240" y2="250" class="grid"/>
<line x1="400" y1="50" x2="400" y2="250" class="grid"/>
<line x1="560" y1="50" x2="560" y2="250" class="grid"/>
<line x1="720" y1="50" x2="720" y2="250" class="grid"/>
<line x1="80" y1="150" x2="720" y2="150" class="grid"/>

<!-- Waveforms -->
<path d="M 80 80 L 80.0 80 L 80.0 120 L 108.9609140788506 120 L 108.9609140788506 80 L 371.53986839376284 80 L 371.53986839376284 120 L 400.5007824726135 120 L 400.5007824726135 80 L 663.0797367875257 80 L 663.0797367875257 120 L 692.0406508663763 120 L 692.0406508663763 80 L 720 80" class="trigger-line"/>
<path d="M 80 200 L 85.12849520146312 200 L 85.12849520146312 160 L 141.94980862416804 160 L 141.94980862416804 200 L 376.7624865659823 200 L 376.7624865659823 160 L 433.5886268077003 160 L 433.5886268077003 200 L 668.001875822539 200 L 668.001875822539 160 L 720.0 160 L 720.0 200 L 720 200" class="spark-line"/>

<!-- Signal labels -->
<text x="20" y="105" class="label" fill="#2E86C1">TRIGGER (neg)</text>
<text x="20" y="185" class="label" fill="#E74C3C">SPARK</text>
<!-- Timing measurement -->
<line x1="371.53986839376284" y1="130" x2="371.53986839376284" y2="170" stroke="#2ECC71" stroke-width="1.5" stroke-dasharray="3,2"/>
<line x1="433.5886268077003" y1="130" x2="433.5886268077003" y2="170" stroke="#2ECC71" stroke-width="1.5" stroke-dasharray="3,2"/>
<text x="402.56424760073156" y="145" text-anchor="middle" class="timing-label">3.1 ms</text>
<text x="402.56424760073156" y="158" text-anchor="middle" class="timing-label">+10.2° BTDC</text>
<text x="12306375000.0" y="40" text-anchor="middle" class="axis-label">45°</text>
<text x="12310150000.0" y="40" text-anchor="middle" class="axis-label">90°</text>
<text x="12313925000.0" y="40" text-anchor="middle" class="axis-label">135°</text>
<text x="12317700000" y="40" text-anchor="middle" class="axis-label">180°</text>
<!-- Title and results -->
<text x="400" y="25" text-anchor="middle" class="title">Curve Point 2000 RPM (Actual: 1900) - Same-Lobe Mode</text>
<text x="400" y="275" text-anchor="middle" class="timing-label">Expected: 11.4° BTDC | Quality: GOOD | Prev-lobe: 0%</text>

<!-- Time axis -->
<text x="80" y="265" class="axis-label">0 ms</text>
<text x="400" y="265" class="axis-label">16.6 ms</text>
<text x="720" y="265" class="axis-label">33.1 ms</text>

</svg>