<?xml version="1.0" ?>
  <svg width="600" height="250" viewBox="0 0 600 250" xmlns="http://www.w3.org/2000/svg">
    <style>
        .grid { stroke: #e0e0e0; stroke-width: 0.5; }
        .axis { stroke: #333; stroke-width: 1; }
        .trigger-line { stroke: #2E86C1; stroke-width: 2; fill: none; }
        .spark-line { stroke: #E74C3C; stroke-width: 2; fill: none; }
        .label { font-family: Arial, sans-serif; font-size: 11px; }
        .title { font-family: Arial, sans-serif; font-size: 14px; font-weight: bold; }
        .timing-arrow { stroke: #8B008B; stroke-width: 1.5; fill: none; marker-end: url(#arrowhead); }
        .timing-label { font-family: Arial, sans-serif; font-size: 10px; fill: #8B008B; }
    </style>
    <defs>
      <marker id="arrowhead" markerWidth="10" markerHeight="7" refX="9" refY="3.5" orient="auto">
        <polygon points="0 0, 10 3.5, 0 7" fill="#8B008B"/>
      </marker>
    </defs>
    <rect width="600" height="250" fill="white"/>
    <line x1="50.0" y1="50" x2="50.0" y2="200" class="grid"/>
    <line x1="175.0" y1="50" x2="175.0" y2="200" class="grid"/>
    <line x1="300.0" y1="50" x2="300.0" y2="200" class="grid"/>
    <line x1="425.0" y1="50" x2="425.0" y2="200" class="grid"/>
    <line x1="550.0" y1="50" x2="550.0" y2="200" class="grid"/>
    <line x1="50" y1="200" x2="550" y2="200" class="axis"/>
    <line x1="50" y1="50" x2="50" y2="200" class="axis"/>
    <path d="M 50.00 100.00 L 53.52 100.00 L 53.52 100.00 L 53.52 100.00 L 53.52 100.00 L 54.20 100.00 L 54.20 50.00 L 57.77 50.00 L 57.77 50.00 L 57.77 50.00 L 57.77 50.00 L 91.70 50.00 L 91.70 100.00 L 95.21 100.00 L 95.21 100.00 L 95.21 100.00 L 95.21 100.00 L 95.90 100.00 L 95.90 50.00 L 99.46 50.00 L 99.46 50.00 L 99.46 50.00 L 99.46 50.00 L 133.39 50.00 L 133.39 100.00 L 136.94 100.00 L 136.94 100.00 L 136.94 100.00 L 136.94 100.00 L 137.60 100.00 L 137.60 50.00 L 141.19 50.00 L 141.19 50.00 L 141.19 50.00 L 141.19 50.00 L 175.09 50.00 L 175.09 100.00 L 178.61 100.00 L 178.61 100.00 L 178.61 100.00 L 178.61 100.00 L 179.29 100.00 L 179.29 50.00 L 182.85 50.00 L 182.85 50.00 L 182.85 50.00 L 182.85 50.00 L 216.78 50.00 L 216.78 100.00 L 220.30 100.00 L 220.30 100.00 L 220.30 100.00 L 220.30 100.00 L 220.99 100.00 L 220.99 50.00 L 224.55 50.00 L 224.55 50.00 L 224.55 50.00 L 224.55 50.00 L 258.48 50.00 L 258.48 100.00 L 262.00 100.00 L 262.00 100.00 L 262.00 100.00 L 262.00 100.00 L 262.68 100.00 L 262.68 50.00 L 266.25 50.00 L 266.25 50.00 L 266.25 50.00 L 266.25 50.00 L 300.18 50.00 L 300.18 100.00 L 303.69 100.00 L 303.69 100.00 L 303.69 100.00 L 303.69 100.00 L 304.38 100.00 L 304.38 50.00 L 307.94 50.00 L 307.94 50.00 L 307.94 50.00 L 307.94 50.00 L 341.87 50.00 L 341.87 100.00 L 345.40 100.00 L 345.40 100.00 L 345.40 100.00 L 345.40 100.00 L 346.08 100.00 L 346.08 50.00 L 349.64 50.00 L 349.64 50.00 L 349.64 50.00 L 349.64 50.00 L 383.57 50.00 L 383.57 100.00 L 387.08 100.00 L 387.08 100.00 L 387.08 100.00 L 387.08 100.00 L 387.77 100.00 L 387.77 50.00 L 391.33 50.00 L 391.33 50.00 L 391.33 50.00 L 391.33 50.00 L 425.26 50.00 L 425.26 100.00 L 428.78 100.00 L 428.78 100.00 L 428.78 100.00 L 428.78 100.00 L 429.47 100.00 L 429.47 50.00 L 433.03 50.00 L 433.03 50.00 L 433.03 50.00 L 433.03 50.00 L 466.96 50.00 L 466.96 100.00 L 470.48 100.00 L 470.48 100.00 L 470.48 100.00 L 470.48 100.00 L 471.16 100.00 L 471.16 50.00 L 474.73 50.00 L 474.73 50.00 L 474.73 50.00 L 474.73 50.00 L 508.65 50.00 L 508.65 100.00 L 512.17 100.00 L 512.17 100.00 L 512.17 100.00 L 512.17 100.00 L 512.51 100.00 L 512.51 50.00 L 516.42 50.00 L 516.42 50.00 L 516.42 50.00 L 516.42 50.00 L 550.00 50.00 L 550.00 100.00" class="trigger-line"/>
    <path d="M 50.00 175.00 L 53.52 175.00 L 53.52 125.00 L 53.52 125.00 L 53.52 125.00 L 54.20 125.00 L 54.20 125.00 L 57.77 125.00 L 57.77 175.00 L 57.77 175.00 L 57.77 175.00 L 91.70 175.00 L 91.70 175.00 L 95.21 175.00 L 95.21 125.00 L 95.21 125.00 L 95.21 125.00 L 95.90 125.00 L 95.90 125.00 L 99.46 125.00 L 99.46 175.00 L 99.46 175.00 L 99.46 175.00 L 133.39 175.00 L 133.39 175.00 L 136.94 175.00 L 136.94 125.00 L 136.94 125.00 L 136.94 125.00 L 137.60 125.00 L 137.60 125.00 L 141.19 125.00 L 141.19 175.00 L 141.19 175.00 L 141.19 175.00 L 175.09 175.00 L 175.09 175.00 L 178.61 175.00 L 178.61 125.00 L 178.61 125.00 L 178.61 125.00 L 179.29 125.00 L 179.29 125.00 L 182.85 125.00 L 182.85 175.00 L 182.85 175.00 L 182.85 175.00 L 216.78 175.00 L 216.78 175.00 L 220.30 175.00 L 220.30 125.00 L 220.30 125.00 L 220.30 125.00 L 220.99 125.00 L 220.99 125.00 L 224.55 125.00 L 224.55 175.00 L 224.55 175.00 L 224.55 175.00 L 258.48 175.00 L 258.48 175.00 L 262.00 175.00 L 262.00 125.00 L 262.00 125.00 L 262.00 125.00 L 262.68 125.00 L 262.68 125.00 L 266.25 125.00 L 266.25 175.00 L 266.25 175.00 L 266.25 175.00 L 300.18 175.00 L 300.18 175.00 L 303.69 175.00 L 303.69 125.00 L 303.69 125.00 L 303.69 125.00 L 304.38 125.00 L 304.38 125.00 L 307.94 125.00 L 307.94 175.00 L 307.94 175.00 L 307.94 175.00 L 341.87 175.00 L 341.87 175.00 L 345.40 175.00 L 345.40 125.00 L 345.40 125.00 L 345.40 125.00 L 346.08 125.00 L 346.08 125.00 L 349.64 125.00 L 349.64 175.00 L 349.64 175.00 L 349.64 175.00 L 383.57 175.00 L 383.57 175.00 L 387.08 175.00 L 387.08 125.00 L 387.08 125.00 L 387.08 125.00 L 387.77 125.00 L 387.77 125.00 L 391.33 125.00 L 391.33 175.00 L 391.33 175.00 L 391.33 175.00 L 425.26 175.00 L 425.26 175.00 L 428.78 175.00 L 428.78 125.00 L 428.78 125.00 L 428.78 125.00 L 429.47 125.00 L 429.47 125.00 L 433.03 125.00 L 433.03 175.00 L 433.03 175.00 L 433.03 175.00 L 466.96 175.00 L 466.96 175.00 L 470.48 175.00 L 470.48 125.00 L 470.48 125.00 L 470.48 125.00 L 471.16 125.00 L 471.16 125.00 L 474.73 125.00 L 474.73 175.00 L 474.73 175.00 L 474.73 175.00 L 508.65 175.00 L 508.65 175.00 L 512.17 175.00 L 512.17 125.00 L 512.17 125.00 L 512.17 125.00 L 512.51 125.00 L 512.51 125.00 L 516.42 125.00 L 516.42 175.00 L 516.42 175.00 L 516.42 175.00 L 550.00 175.00 L 550.00 175.00" class="spark-line"/>
    <line x1="91.6958654519878" y1="112.5" x2="99.46040644708484" y2="112.5" class="timing-arrow"/>
    <text x="95.57813594953632" y="107.5" text-anchor="middle" class="timing-label">2.2ms</text>
    <text x="15" y="75.0" class="label" fill="#2E86C1">TRIGGER</text>
    <text x="15" y="150.0" class="label" fill="#E74C3C">SPARK</text>
    <text x="300.0" y="20" text-anchor="middle" class="title">~2000 RPM - Ignition Timing</text>
    <text x="50.0" y="215" text-anchor="middle" class="label">0</text>
    <text x="175.0" y="215" text-anchor="middle" class="label">36</text>
    <text x="300.0" y="215" text-anchor="middle" class="label">71</text>
    <text x="425.0" y="215" text-anchor="middle" class="label">107</text>
    <text x="550.0" y="215" text-anchor="middle" class="label">143</text>
    <text x="300.0" y="235" text-anchor="middle" class="label">Time (ms)</text>
    <text x="550" y="35" text-anchor="end" class="label" fill="#666">12 cycles shown</text>
  </svg>
