<?xml version="1.0" ?>
  <svg width="600" height="250" viewBox="0 0 600 250" xmlns="http://www.w3.org/2000/svg">
    <style>
        .grid { stroke: #e0e0e0; stroke-width: 0.5; }
        .axis { stroke: #333; stroke-width: 1; }
        .trigger-line { stroke: #2E86C1; stroke-width: 2; fill: none; }
        .spark-line { stroke: #E74C3C; stroke-width: 2; fill: none; }
        .label { font-family: Arial, sans-serif; font-size: 11px; }
        .title { font-family: Arial, sans-serif; font-size: 14px; font-weight: bold; }
        .timing-arrow { stroke: #8B008B; stroke-width: 1.5; fill: none; marker-end: url(#arrowhead); }
        .timing-label { font-family: Arial, sans-serif; font-size: 10px; fill: #8B008B; }
    </style>
    <defs>
      <marker id="arrowhead" markerWidth="10" markerHeight="7" refX="9" refY="3.5" orient="auto">
        <polygon points="0 0, 10 3.5, 0 7" fill="#8B008B"/>
      </marker>
    </defs>
    <rect width="600" height="250" fill="white"/>
    <line x1="50.0" y1="50" x2="50.0" y2="200" class="grid"/>
    <line x1="175.0" y1="50" x2="175.0" y2="200" class="grid"/>
    <line x1="300.0" y1="50" x2="300.0" y2="200" class="grid"/>
    <line x1="425.0" y1="50" x2="425.0" y2="200" class="grid"/>
    <line x1="550.0" y1="50" x2="550.0" y2="200" class="grid"/>
    <line x1="50" y1="200" x2="550" y2="200" class="axis"/>
    <line x1="50" y1="50" x2="50" y2="200" class="axis"/>
    <path d="M 50.00 100.00 L 51.76 100.00 L 51.76 100.00 L 51.76 100.00 L 51.76 100.00 L 56.54 100.00 L 56.54 50.00 L 58.31 50.00 L 58.31 50.00 L 58.31 50.00 L 58.31 50.00 L 83.33 50.00 L 83.33 100.00 L 85.16 100.00 L 85.16 100.00 L 85.16 100.00 L 85.16 100.00 L 89.87 100.00 L 89.87 50.00 L 91.71 50.00 L 91.71 50.00 L 91.71 50.00 L 91.71 50.00 L 116.67 50.00 L 116.67 100.00 L 118.47 100.00 L 118.47 100.00 L 118.47 100.00 L 118.47 100.00 L 123.20 100.00 L 123.20 50.00 L 125.01 50.00 L 125.01 50.00 L 125.01 50.00 L 125.01 50.00 L 150.00 50.00 L 150.00 100.00 L 151.78 100.00 L 151.78 100.00 L 151.78 100.00 L 151.78 100.00 L 156.54 100.00 L 156.54 50.00 L 158.32 50.00 L 158.32 50.00 L 158.32 50.00 L 158.32 50.00 L 183.33 50.00 L 183.33 100.00 L 185.08 100.00 L 185.08 100.00 L 185.09 100.00 L 185.09 100.00 L 189.87 100.00 L 189.87 50.00 L 191.63 50.00 L 191.63 50.00 L 191.63 50.00 L 191.63 50.00 L 216.67 50.00 L 216.67 100.00 L 218.48 100.00 L 218.48 100.00 L 218.48 100.00 L 218.48 100.00 L 223.20 100.00 L 223.20 50.00 L 225.03 50.00 L 225.03 50.00 L 225.03 50.00 L 225.03 50.00 L 250.00 50.00 L 250.00 100.00 L 251.79 100.00 L 251.79 100.00 L 251.79 100.00 L 251.79 100.00 L 256.54 100.00 L 256.54 50.00 L 258.33 50.00 L 258.33 50.00 L 258.33 50.00 L 258.33 50.00 L 283.33 50.00 L 283.33 100.00 L 285.10 100.00 L 285.10 100.00 L 285.10 100.00 L 285.10 100.00 L 289.87 100.00 L 289.87 50.00 L 291.64 50.00 L 291.64 50.00 L 291.64 50.00 L 291.64 50.00 L 316.67 50.00 L 316.67 100.00 L 318.50 100.00 L 318.50 100.00 L 318.50 100.00 L 318.50 100.00 L 323.20 100.00 L 323.20 50.00 L 325.04 50.00 L 325.04 50.00 L 325.04 50.00 L 325.04 50.00 L 350.00 50.00 L 350.00 100.00 L 351.80 100.00 L 351.80 100.00 L 351.80 100.00 L 351.80 100.00 L 356.54 100.00 L 356.54 50.00 L 358.35 50.00 L 358.35 50.00 L 358.35 50.00 L 358.35 50.00 L 383.33 50.00 L 383.33 100.00 L 385.10 100.00 L 385.10 100.00 L 385.11 100.00 L 385.11 100.00 L 389.87 100.00 L 389.87 50.00 L 391.65 50.00 L 391.65 50.00 L 391.65 50.00 L 391.65 50.00 L 416.67 50.00 L 416.67 100.00 L 418.42 100.00 L 418.42 100.00 L 418.42 100.00 L 418.42 100.00 L 423.20 100.00 L 423.20 50.00 L 424.96 50.00 L 424.96 50.00 L 424.97 50.00 L 424.97 50.00 L 450.00 50.00 L 450.00 100.00 L 451.82 100.00 L 451.82 100.00 L 451.82 100.00 L 451.82 100.00 L 456.54 100.00 L 456.54 50.00 L 458.36 50.00 L 458.36 50.00 L 458.36 50.00 L 458.36 50.00 L 483.33 50.00 L 483.33 100.00 L 489.87 100.00 L 489.87 50.00 L 506.97 50.00 L 506.97 50.00 L 506.97 50.00 L 506.97 50.00 L 513.51 50.00 L 513.51 50.00 L 513.51 50.00 L 513.51 50.00 L 516.67 50.00 L 516.67 100.00 L 518.58 100.00 L 518.58 100.00 L 518.58 100.00 L 518.58 100.00 L 523.20 100.00 L 523.20 50.00 L 525.12 50.00 L 525.12 50.00 L 525.12 50.00 L 525.12 50.00 L 550.00 50.00 L 550.00 100.00" class="trigger-line"/>
    <path d="M 50.00 175.00 L 51.76 175.00 L 51.76 125.00 L 51.76 125.00 L 51.76 125.00 L 56.54 125.00 L 56.54 125.00 L 58.31 125.00 L 58.31 175.00 L 58.31 175.00 L 58.31 175.00 L 83.33 175.00 L 83.33 175.00 L 85.16 175.00 L 85.16 125.00 L 85.16 125.00 L 85.16 125.00 L 89.87 125.00 L 89.87 125.00 L 91.71 125.00 L 91.71 175.00 L 91.71 175.00 L 91.71 175.00 L 116.67 175.00 L 116.67 175.00 L 118.47 175.00 L 118.47 125.00 L 118.47 125.00 L 118.47 125.00 L 123.20 125.00 L 123.20 125.00 L 125.01 125.00 L 125.01 175.00 L 125.01 175.00 L 125.01 175.00 L 150.00 175.00 L 150.00 175.00 L 151.78 175.00 L 151.78 125.00 L 151.78 125.00 L 151.78 125.00 L 156.54 125.00 L 156.54 125.00 L 158.32 125.00 L 158.32 175.00 L 158.32 175.00 L 158.32 175.00 L 183.33 175.00 L 183.33 175.00 L 185.08 175.00 L 185.08 125.00 L 185.09 125.00 L 185.09 125.00 L 189.87 125.00 L 189.87 125.00 L 191.63 125.00 L 191.63 175.00 L 191.63 175.00 L 191.63 175.00 L 216.67 175.00 L 216.67 175.00 L 218.48 175.00 L 218.48 125.00 L 218.48 125.00 L 218.48 125.00 L 223.20 125.00 L 223.20 125.00 L 225.03 125.00 L 225.03 175.00 L 225.03 175.00 L 225.03 175.00 L 250.00 175.00 L 250.00 175.00 L 251.79 175.00 L 251.79 125.00 L 251.79 125.00 L 251.79 125.00 L 256.54 125.00 L 256.54 125.00 L 258.33 125.00 L 258.33 175.00 L 258.33 175.00 L 258.33 175.00 L 283.33 175.00 L 283.33 175.00 L 285.10 175.00 L 285.10 125.00 L 285.10 125.00 L 285.10 125.00 L 289.87 125.00 L 289.87 125.00 L 291.64 125.00 L 291.64 175.00 L 291.64 175.00 L 291.64 175.00 L 316.67 175.00 L 316.67 175.00 L 318.50 175.00 L 318.50 125.00 L 318.50 125.00 L 318.50 125.00 L 323.20 125.00 L 323.20 125.00 L 325.04 125.00 L 325.04 175.00 L 325.04 175.00 L 325.04 175.00 L 350.00 175.00 L 350.00 175.00 L 351.80 175.00 L 351.80 125.00 L 351.80 125.00 L 351.80 125.00 L 356.54 125.00 L 356.54 125.00 L 358.35 125.00 L 358.35 175.00 L 358.35 175.00 L 358.35 175.00 L 383.33 175.00 L 383.33 175.00 L 385.10 175.00 L 385.10 125.00 L 385.11 125.00 L 385.11 125.00 L 389.87 125.00 L 389.87 125.00 L 391.65 125.00 L 391.65 175.00 L 391.65 175.00 L 391.65 175.00 L 416.67 175.00 L 416.67 175.00 L 418.42 175.00 L 418.42 125.00 L 418.42 125.00 L 418.42 125.00 L 423.20 125.00 L 423.20 125.00 L 424.96 125.00 L 424.96 175.00 L 424.97 175.00 L 424.97 175.00 L 450.00 175.00 L 450.00 175.00 L 451.82 175.00 L 451.82 125.00 L 451.82 125.00 L 451.82 125.00 L 456.54 125.00 L 456.54 125.00 L 458.36 125.00 L 458.36 175.00 L 458.36 175.00 L 458.36 175.00 L 483.33 175.00 L 483.33 175.00 L 489.87 175.00 L 489.87 175.00 L 506.97 175.00 L 506.97 125.00 L 506.97 125.00 L 506.97 125.00 L 513.51 125.00 L 513.51 175.00 L 513.51 175.00 L 513.51 175.00 L 516.67 175.00 L 516.67 175.00 L 518.58 175.00 L 518.58 125.00 L 518.58 125.00 L 518.58 125.00 L 523.20 125.00 L 523.20 125.00 L 525.12 125.00 L 525.12 175.00 L 525.12 175.00 L 525.12 175.00 L 550.00 175.00 L 550.00 175.00" class="spark-line"/>
    <line x1="83.33333333332715" y1="112.5" x2="91.70588235297375" y2="112.5" class="timing-arrow"/>
    <text x="87.51960784315045" y="107.5" text-anchor="middle" class="timing-label">1.3ms</text>
    <text x="15" y="75.0" class="label" fill="#2E86C1">TRIGGER</text>
    <text x="15" y="150.0" class="label" fill="#E74C3C">SPARK</text>
    <text x="300.0" y="20" text-anchor="middle" class="title">~5500 RPM - Ignition Timing</text>
    <text x="50.0" y="215" text-anchor="middle" class="label">0</text>
    <text x="175.0" y="215" text-anchor="middle" class="label">19</text>
    <text x="300.0" y="215" text-anchor="middle" class="label">38</text>
    <text x="425.0" y="215" text-anchor="middle" class="label">57</text>
    <text x="550.0" y="215" text-anchor="middle" class="label">76</text>
    <text x="300.0" y="235" text-anchor="middle" class="label">Time (ms)</text>
    <text x="550" y="35" text-anchor="end" class="label" fill="#666">15 cycles shown</text>
  </svg>
