<?xml version="1.0" ?>
  <svg width="800" height="300" viewBox="0 0 800 300" xmlns="http://www.w3.org/2000/svg">
    <style>
            .grid { stroke: #e8e8e8; stroke-width: 1; stroke-dasharray: 2,2; }
            .trigger-line { stroke: #2E86C1; stroke-width: 2.5; fill: none; }
            .spark-line { stroke: #E74C3C; stroke-width: 2.5; fill: none; }
            .label { font-family: Arial, sans-serif; font-size: 14px; font-weight: bold; }
            .axis-label { font-family: Arial, sans-serif; font-size: 12px; }
            .title { font-family: Arial, sans-serif; font-size: 18px; font-weight: bold; }
            .timing-arrow { stroke: #7B68EE; stroke-width: 1.5; fill: none; stroke-dasharray: 5,2; }
            .timing-label { font-family: Arial, sans-serif; font-size: 11px; fill: #7B68EE; font-weight: bold; }
        </style>
    <rect width="800" height="300" fill="white"/>
    <line x1="80.0" y1="50" x2="80.0" y2="250" class="grid"/>
    <line x1="247.5" y1="50" x2="247.5" y2="250" class="grid"/>
    <line x1="415.0" y1="50" x2="415.0" y2="250" class="grid"/>
    <line x1="582.5" y1="50" x2="582.5" y2="250" class="grid"/>
    <line x1="750.0" y1="50" x2="750.0" y2="250" class="grid"/>
    <line x1="80" y1="150.0" x2="750" y2="150.0" class="grid"/>
    <path d="M 80.00 60.00 L 80.00 60.00 L 135.08 60.00 L 135.08 100.00 L 140.79 100.00 L 140.79 100.00 L 141.91 100.00 L 141.91 60.00 L 147.69 60.00 L 147.69 60.00 L 202.77 60.00 L 202.77 100.00 L 208.48 100.00 L 208.48 100.00 L 209.60 100.00 L 209.60 60.00 L 215.38 60.00 L 215.38 60.00 L 270.46 60.00 L 270.46 100.00 L 276.17 100.00 L 276.17 100.00 L 277.29 100.00 L 277.29 60.00 L 283.07 60.00 L 283.07 60.00 L 338.15 60.00 L 338.15 100.00 L 343.86 100.00 L 343.86 100.00 L 344.97 100.00 L 344.97 60.00 L 350.76 60.00 L 350.76 60.00 L 405.84 60.00 L 405.84 100.00 L 411.55 100.00 L 411.55 100.00 L 412.66 100.00 L 412.66 60.00 L 418.45 60.00 L 418.45 60.00 L 473.53 60.00 L 473.53 100.00 L 479.24 100.00 L 479.24 100.00 L 480.35 100.00 L 480.35 60.00 L 486.14 60.00 L 486.14 60.00 L 541.22 60.00 L 541.22 100.00 L 546.93 100.00 L 546.93 100.00 L 548.04 100.00 L 548.04 60.00 L 553.83 60.00 L 553.83 60.00 L 608.91 60.00 L 608.91 100.00 L 614.62 100.00 L 614.62 100.00 L 615.73 100.00 L 615.73 60.00 L 621.52 60.00 L 621.52 60.00 L 676.60 60.00 L 676.60 100.00 L 682.31 100.00 L 682.31 100.00 L 683.42 100.00 L 683.42 60.00 L 689.21 60.00 L 689.21 60.00 L 744.29 60.00 L 744.29 100.00 L 750.00 100.00" class="trigger-line"/>
    <path d="M 80.00 200.00 L 80.00 200.00 L 135.08 200.00 L 140.79 200.00 L 140.79 160.00 L 140.79 160.00 L 141.91 160.00 L 147.69 160.00 L 147.69 200.00 L 147.69 200.00 L 202.77 200.00 L 208.48 200.00 L 208.48 160.00 L 208.48 160.00 L 209.60 160.00 L 215.38 160.00 L 215.38 200.00 L 215.38 200.00 L 270.46 200.00 L 276.17 200.00 L 276.17 160.00 L 276.17 160.00 L 277.29 160.00 L 283.07 160.00 L 283.07 200.00 L 283.07 200.00 L 338.15 200.00 L 343.86 200.00 L 343.86 160.00 L 343.86 160.00 L 344.97 160.00 L 350.76 160.00 L 350.76 200.00 L 350.76 200.00 L 405.84 200.00 L 411.55 200.00 L 411.55 160.00 L 411.55 160.00 L 412.66 160.00 L 418.45 160.00 L 418.45 200.00 L 418.45 200.00 L 473.53 200.00 L 479.24 200.00 L 479.24 160.00 L 479.24 160.00 L 480.35 160.00 L 486.14 160.00 L 486.14 200.00 L 486.14 200.00 L 541.22 200.00 L 546.93 200.00 L 546.93 160.00 L 546.93 160.00 L 548.04 160.00 L 553.83 160.00 L 553.83 200.00 L 553.83 200.00 L 608.91 200.00 L 614.62 200.00 L 614.62 160.00 L 614.62 160.00 L 615.73 160.00 L 621.52 160.00 L 621.52 200.00 L 621.52 200.00 L 676.60 200.00 L 682.31 200.00 L 682.31 160.00 L 682.31 160.00 L 683.42 160.00 L 689.21 160.00 L 689.21 200.00 L 689.21 200.00 L 744.29 200.00 L 750.00 200.00 L 750.00 160.00" class="spark-line"/>
    <line x1="135.07916832926668" y1="115.0" x2="135.07916832926668" y2="185.0" class="timing-arrow" stroke="#27AE60"/>
    <line x1="147.68678028984698" y1="115.0" x2="147.68678028984698" y2="185.0" class="timing-arrow" stroke="#27AE60"/>
    <text x="141.38297430955683" y="130.0" text-anchor="middle" class="timing-label" fill="#27AE60">2.2 ms</text>
    <text x="141.38297430955683" y="145.0" text-anchor="middle" class="timing-label" fill="#27AE60">+13.5° BTDC (GOOD)</text>
    <text x="15" y="100.0" class="label" fill="#2E86C1">TRIGGER</text>
    <text x="15" y="200.0" class="label" fill="#E74C3C">SPARK</text>
    <text x="400.0" y="25" text-anchor="middle" class="title">Medium RPM (2521) - Ignition Timing</text>
    <text x="80.0" y="260" text-anchor="middle" class="axis-label">0.0</text>
    <text x="247.5" y="260" text-anchor="middle" class="axis-label">29.4</text>
    <text x="415.0" y="260" text-anchor="middle" class="axis-label">58.9</text>
    <text x="582.5" y="260" text-anchor="middle" class="axis-label">88.3</text>
    <text x="750.0" y="260" text-anchor="middle" class="axis-label">117.8</text>
    <text x="400.0" y="290" text-anchor="middle" class="axis-label">Time (milliseconds)</text>
  </svg>
