<?xml version="1.0" ?>
  <svg width="800" height="300" viewBox="0 0 800 300" xmlns="http://www.w3.org/2000/svg">
    <style>
            .grid { stroke: #e8e8e8; stroke-width: 1; stroke-dasharray: 2,2; }
            .trigger-line { stroke: #2E86C1; stroke-width: 2.5; fill: none; }
            .spark-line { stroke: #E74C3C; stroke-width: 2.5; fill: none; }
            .label { font-family: Arial, sans-serif; font-size: 14px; font-weight: bold; }
            .axis-label { font-family: Arial, sans-serif; font-size: 12px; }
            .title { font-family: Arial, sans-serif; font-size: 18px; font-weight: bold; }
            .timing-arrow { stroke: #7B68EE; stroke-width: 1.5; fill: none; stroke-dasharray: 5,2; }
            .timing-label { font-family: Arial, sans-serif; font-size: 11px; fill: #7B68EE; font-weight: bold; }
        </style>
    <rect width="800" height="300" fill="white"/>
    <line x1="80.0" y1="50" x2="80.0" y2="250" class="grid"/>
    <line x1="247.5" y1="50" x2="247.5" y2="250" class="grid"/>
    <line x1="415.0" y1="50" x2="415.0" y2="250" class="grid"/>
    <line x1="582.5" y1="50" x2="582.5" y2="250" class="grid"/>
    <line x1="750.0" y1="50" x2="750.0" y2="250" class="grid"/>
    <line x1="80" y1="150.0" x2="750" y2="150.0" class="grid"/>
    <path d="M 80.00 60.00 L 80.00 60.00 L 132.91 60.00 L 132.91 100.00 L 139.83 100.00 L 139.83 60.00 L 142.81 60.00 L 142.81 60.00 L 148.92 60.00 L 148.92 60.00 L 201.68 60.00 L 201.68 100.00 L 208.60 100.00 L 208.60 60.00 L 211.53 60.00 L 211.53 60.00 L 217.63 60.00 L 217.63 60.00 L 270.24 60.00 L 270.24 100.00 L 277.16 100.00 L 277.16 60.00 L 280.04 60.00 L 280.04 60.00 L 286.15 60.00 L 286.15 60.00 L 338.61 60.00 L 338.61 100.00 L 345.32 100.00 L 345.32 60.00 L 348.35 60.00 L 348.35 60.00 L 354.45 60.00 L 354.46 60.00 L 406.56 60.00 L 406.56 100.00 L 413.28 100.00 L 413.28 60.00 L 416.20 60.00 L 416.20 60.00 L 422.31 60.00 L 422.31 60.00 L 474.31 60.00 L 474.31 100.00 L 481.03 100.00 L 481.03 60.00 L 483.90 60.00 L 483.90 60.00 L 490.01 60.00 L 490.01 60.00 L 541.86 60.00 L 541.86 100.00 L 548.58 100.00 L 548.58 60.00 L 551.40 60.00 L 551.40 60.00 L 557.50 60.00 L 557.50 60.00 L 609.21 60.00 L 609.21 100.00 L 615.92 100.00 L 615.92 60.00 L 618.69 60.00 L 618.69 60.00 L 624.79 60.00 L 624.79 60.00 L 676.35 60.00 L 676.35 100.00 L 683.06 100.00 L 683.06 60.00 L 685.77 60.00 L 685.77 60.00 L 691.88 60.00 L 691.88 60.00 L 743.29 60.00 L 743.29 100.00 L 750.00 100.00 L 750.00 60.00" class="trigger-line"/>
    <path d="M 80.00 200.00 L 80.00 200.00 L 132.91 200.00 L 139.83 200.00 L 142.81 200.00 L 142.81 160.00 L 142.81 160.00 L 148.92 160.00 L 148.92 200.00 L 148.92 200.00 L 201.68 200.00 L 208.60 200.00 L 211.53 200.00 L 211.53 160.00 L 211.53 160.00 L 217.63 160.00 L 217.63 200.00 L 217.63 200.00 L 270.24 200.00 L 277.16 200.00 L 280.04 200.00 L 280.04 160.00 L 280.04 160.00 L 286.15 160.00 L 286.15 200.00 L 286.15 200.00 L 338.61 200.00 L 345.32 200.00 L 348.35 200.00 L 348.35 160.00 L 348.35 160.00 L 354.45 160.00 L 354.45 200.00 L 354.46 200.00 L 406.56 200.00 L 413.28 200.00 L 416.20 200.00 L 416.20 160.00 L 416.20 160.00 L 422.31 160.00 L 422.31 200.00 L 422.31 200.00 L 474.31 200.00 L 481.03 200.00 L 483.90 200.00 L 483.90 160.00 L 483.90 160.00 L 490.01 160.00 L 490.01 200.00 L 490.01 200.00 L 541.86 200.00 L 548.58 200.00 L 551.40 200.00 L 551.40 160.00 L 551.40 160.00 L 557.50 160.00 L 557.50 200.00 L 557.50 200.00 L 609.21 200.00 L 615.92 200.00 L 618.69 200.00 L 618.69 160.00 L 618.69 160.00 L 624.79 160.00 L 624.79 200.00 L 624.79 200.00 L 676.35 200.00 L 683.06 200.00 L 685.77 200.00 L 685.77 160.00 L 685.77 160.00 L 691.88 160.00 L 691.88 200.00 L 691.88 200.00 L 743.29 200.00 L 750.00 200.00" class="spark-line"/>
    <line x1="132.90969507383028" y1="115.0" x2="132.90969507383028" y2="185.0" class="timing-arrow" stroke="#F39C12"/>
    <line x1="148.91769917033568" y1="115.0" x2="148.91769917033568" y2="185.0" class="timing-arrow" stroke="#F39C12"/>
    <text x="140.91369712208297" y="130.0" text-anchor="middle" class="timing-label" fill="#F39C12">7.9 ms</text>
    <text x="140.91369712208297" y="145.0" text-anchor="middle" class="timing-label" fill="#F39C12">+4.5° BTDC (POOR)</text>
    <text x="15" y="100.0" class="label" fill="#2E86C1">TRIGGER</text>
    <text x="15" y="200.0" class="label" fill="#E74C3C">SPARK</text>
    <text x="400.0" y="25" text-anchor="middle" class="title">Low RPM (899) - Ignition Timing</text>
    <text x="80.0" y="260" text-anchor="middle" class="axis-label">0.0</text>
    <text x="247.5" y="260" text-anchor="middle" class="axis-label">82.3</text>
    <text x="415.0" y="260" text-anchor="middle" class="axis-label">164.7</text>
    <text x="582.5" y="260" text-anchor="middle" class="axis-label">247.0</text>
    <text x="750.0" y="260" text-anchor="middle" class="axis-label">329.3</text>
    <text x="400.0" y="290" text-anchor="middle" class="axis-label">Time (milliseconds)</text>
  </svg>
