<?xml version="1.0" ?>
<svg width="800" height="300" viewBox="0 0 800 300" xmlns="http://www.w3.org/2000/svg">
<style>
    .grid { stroke: #e8e8e8; stroke-width: 1; stroke-dasharray: 2,2; }
    .trigger-line { stroke: #2E86C1; stroke-width: 2.5; fill: none; }
    .spark-line { stroke: #E74C3C; stroke-width: 2.5; fill: none; }
    .label { font-family: Arial, sans-serif; font-size: 12px; font-weight: bold; }
    .title { font-family: Arial, sans-serif; font-size: 18px; font-weight: bold; }
    .timing-label { font-family: Arial, sans-serif; font-size: 11px; fill: #2ECC71; font-weight: bold; }
    .axis-label { font-family: Arial, sans-serif; font-size: 10px; }
</style>
<rect width="800" height="300" fill="white"/>

<!-- Grid lines -->
<line x1="80" y1="50" x2="80" y2="250" class="grid"/>
<line x1="240" y1="50" x2="240" y2="250" class="grid"/>
<line x1="400" y1="50" x2="400" y2="250" class="grid"/>
<line x1="560" y1="50" x2="560" y2="250" class="grid"/>
<line x1="720" y1="50" x2="720" y2="250" class="grid"/>
<line x1="80" y1="150" x2="720" y2="150" class="grid"/>

<!-- Waveforms -->
<path d="M 80 80 L 80.0 80 L 80.0 120 L 110.0 120 L 110.0 80 L 385.0 80 L 385.0 120 L 415.0 120 L 415.0 80 L 690.0 80 L 690.0 120 L 720.0 120 L 720.0 80 L 720 80" class="trigger-line"/>
<path d="M 80 200 L 93.39375 200 L 93.39375 160 L 135.95625 160 L 135.95625 200 L 398.35310000000004 200 L 398.35310000000004 160 L 440.97810000000004 160 L 440.97810000000004 200 L 704.04375 200 L 704.04375 160 L 720 160" class="spark-line"/>

<!-- Signal labels -->
<text x="20" y="105" class="label" fill="#2E86C1">TRIGGER (neg)</text>
<text x="20" y="185" class="label" fill="#E74C3C">SPARK</text>
<!-- Timing measurement -->
<line x1="385.0" y1="130" x2="385.0" y2="170" stroke="#2ECC71" stroke-width="1.5" stroke-dasharray="3,2"/>
<line x1="440.97810000000004" y1="130" x2="440.97810000000004" y2="170" stroke="#2ECC71" stroke-width="1.5" stroke-dasharray="3,2"/>
<text x="412.98905" y="145" text-anchor="middle" class="timing-label">1.2 ms</text>
<text x="412.98905" y="158" text-anchor="middle" class="timing-label">+12.1° BTDC</text>
<text x="27392925000.0" y="40" text-anchor="middle" class="axis-label">45°</text>
<text x="27394450000.0" y="40" text-anchor="middle" class="axis-label">90°</text>
<text x="27395975000.0" y="40" text-anchor="middle" class="axis-label">135°</text>
<text x="27397500000" y="40" text-anchor="middle" class="axis-label">180°</text>
<!-- Title and results -->
<text x="400" y="25" text-anchor="middle" class="title">Curve Point 5000 RPM (Actual: 4900) - Same-Lobe Mode</text>
<text x="400" y="275" text-anchor="middle" class="timing-label">Expected: 14.1° BTDC | Quality: GOOD | Prev-lobe: 0%</text>

<!-- Time axis -->
<text x="80" y="265" class="axis-label">0 ms</text>
<text x="400" y="265" class="axis-label">6.4 ms</text>
<text x="720" y="265" class="axis-label">12.8 ms</text>

</svg>