<?xml version="1.0" ?>
<svg width="800" height="300" viewBox="0 0 800 300" xmlns="http://www.w3.org/2000/svg">
<style>
    .grid { stroke: #e8e8e8; stroke-width: 1; stroke-dasharray: 2,2; }
    .trigger-line { stroke: #2E86C1; stroke-width: 2.5; fill: none; }
    .spark-line { stroke: #E74C3C; stroke-width: 2.5; fill: none; }
    .label { font-family: Arial, sans-serif; font-size: 12px; font-weight: bold; }
    .title { font-family: Arial, sans-serif; font-size: 18px; font-weight: bold; }
    .timing-label { font-family: Arial, sans-serif; font-size: 11px; fill: #2ECC71; font-weight: bold; }
    .axis-label { font-family: Arial, sans-serif; font-size: 10px; }
</style>
<rect width="800" height="300" fill="white"/>

<!-- Grid lines -->
<line x1="80" y1="50" x2="80" y2="250" class="grid"/>
<line x1="240" y1="50" x2="240" y2="250" class="grid"/>
<line x1="400" y1="50" x2="400" y2="250" class="grid"/>
<line x1="560" y1="50" x2="560" y2="250" class="grid"/>
<line x1="720" y1="50" x2="720" y2="250" class="grid"/>
<line x1="80" y1="150" x2="720" y2="150" class="grid"/>

<!-- Waveforms -->
<path d="M 80 80 L 80.0 80 L 80.0 120 L 110.92674529227888 120 L 110.92674529227888 80 L 373.8040802766494 80 L 373.8040802766494 120 L 404.7308255689283 120 L 404.7308255689283 80 L 667.6081605532988 80 L 667.6081605532988 120 L 698.5349058455777 120 L 698.5349058455777 80 L 720 80" class="trigger-line"/>
<path d="M 80 200 L 90.07291825855846 200 L 90.07291825855846 160 L 132.38700714274927 160 L 132.38700714274927 200 L 383.55806647438123 200 L 383.55806647438123 160 L 435.7445523323417 160 L 435.7445523323417 200 L 677.5554389091074 200 L 677.5554389091074 160 L 720.0 160 L 720.0 200 L 720 200" class="spark-line"/>

<!-- Signal labels -->
<text x="20" y="105" class="label" fill="#2E86C1">TRIGGER (neg)</text>
<text x="20" y="185" class="label" fill="#E74C3C">SPARK</text>
<!-- Timing measurement -->
<line x1="373.8040802766494" y1="130" x2="373.8040802766494" y2="170" stroke="#2ECC71" stroke-width="1.5" stroke-dasharray="3,2"/>
<line x1="435.7445523323417" y1="130" x2="435.7445523323417" y2="170" stroke="#2ECC71" stroke-width="1.5" stroke-dasharray="3,2"/>
<text x="404.7743163044955" y="145" text-anchor="middle" class="timing-label">1.4 ms</text>
<text x="404.7743163044955" y="158" text-anchor="middle" class="timing-label">+13.0° BTDC</text>
<text x="22351200000.0" y="40" text-anchor="middle" class="axis-label">45°</text>
<text x="22353100000.0" y="40" text-anchor="middle" class="axis-label">90°</text>
<text x="22355000000.0" y="40" text-anchor="middle" class="axis-label">135°</text>
<text x="22356900000" y="40" text-anchor="middle" class="axis-label">180°</text>
<!-- Title and results -->
<text x="400" y="25" text-anchor="middle" class="title">Curve Point 4000 RPM (Actual: 3900) - Same-Lobe Mode</text>
<text x="400" y="275" text-anchor="middle" class="timing-label">Expected: 15.0° BTDC | Quality: GOOD | Prev-lobe: 0%</text>

<!-- Time axis -->
<text x="80" y="265" class="axis-label">0 ms</text>
<text x="400" y="265" class="axis-label">8.3 ms</text>
<text x="720" y="265" class="axis-label">16.6 ms</text>

</svg>