<?xml version="1.0" ?>
  <svg width="600" height="250" viewBox="0 0 600 250" xmlns="http://www.w3.org/2000/svg">
    <style>
        .grid { stroke: #e0e0e0; stroke-width: 0.5; }
        .axis { stroke: #333; stroke-width: 1; }
        .trigger-line { stroke: #2E86C1; stroke-width: 2; fill: none; }
        .spark-line { stroke: #E74C3C; stroke-width: 2; fill: none; }
        .label { font-family: Arial, sans-serif; font-size: 11px; }
        .title { font-family: Arial, sans-serif; font-size: 14px; font-weight: bold; }
        .timing-arrow { stroke: #8B008B; stroke-width: 1.5; fill: none; marker-end: url(#arrowhead); }
        .timing-label { font-family: Arial, sans-serif; font-size: 10px; fill: #8B008B; }
    </style>
    <defs>
      <marker id="arrowhead" markerWidth="10" markerHeight="7" refX="9" refY="3.5" orient="auto">
        <polygon points="0 0, 10 3.5, 0 7" fill="#8B008B"/>
      </marker>
    </defs>
    <rect width="600" height="250" fill="white"/>
    <line x1="50.0" y1="50" x2="50.0" y2="200" class="grid"/>
    <line x1="175.0" y1="50" x2="175.0" y2="200" class="grid"/>
    <line x1="300.0" y1="50" x2="300.0" y2="200" class="grid"/>
    <line x1="425.0" y1="50" x2="425.0" y2="200" class="grid"/>
    <line x1="550.0" y1="50" x2="550.0" y2="200" class="grid"/>
    <line x1="50" y1="200" x2="550" y2="200" class="axis"/>
    <line x1="50" y1="50" x2="50" y2="200" class="axis"/>
    <path d="M 50.00 50.00 L 50.00 50.00 L 50.00 50.00 L 98.50 50.00 L 98.50 100.00 L 104.83 100.00 L 104.83 50.00 L 108.26 50.00 L 108.26 50.00 L 108.26 50.00 L 108.26 50.00 L 113.39 50.00 L 113.39 50.00 L 113.39 50.00 L 113.39 50.00 L 161.77 50.00 L 161.77 100.00 L 167.93 100.00 L 167.93 50.00 L 171.48 50.00 L 171.48 50.00 L 171.48 50.00 L 171.48 50.00 L 176.61 50.00 L 176.61 50.00 L 176.61 50.00 L 176.61 50.00 L 224.52 50.00 L 224.52 100.00 L 230.85 100.00 L 230.85 50.00 L 234.11 50.00 L 234.11 50.00 L 234.11 50.00 L 234.11 50.00 L 239.24 50.00 L 239.24 50.00 L 239.24 50.00 L 239.24 50.00 L 287.28 50.00 L 287.28 100.00 L 293.43 100.00 L 293.43 50.00 L 296.85 50.00 L 296.85 50.00 L 296.85 50.00 L 296.85 50.00 L 301.99 50.00 L 301.99 50.00 L 301.99 50.00 L 301.99 50.00 L 349.69 50.00 L 349.69 100.00 L 355.85 100.00 L 355.85 50.00 L 359.18 50.00 L 359.18 50.00 L 359.18 50.00 L 359.18 50.00 L 364.31 50.00 L 364.31 50.00 L 364.31 50.00 L 364.31 50.00 L 411.76 50.00 L 411.76 100.00 L 418.09 100.00 L 418.09 50.00 L 421.16 50.00 L 421.16 50.00 L 421.16 50.00 L 421.16 50.00 L 426.29 50.00 L 426.29 50.00 L 426.29 50.00 L 426.29 50.00 L 473.83 50.00 L 473.83 100.00 L 479.99 100.00 L 479.99 50.00 L 483.23 50.00 L 483.23 50.00 L 483.23 50.00 L 483.23 50.00 L 488.36 50.00 L 488.36 50.00 L 488.36 50.00 L 488.36 50.00 L 535.56 50.00 L 535.56 100.00 L 541.72 100.00 L 541.72 50.00 L 544.87 50.00 L 544.87 50.00 L 544.87 50.00 L 544.87 50.00 L 550.00 50.00 L 550.00 50.00 L 550.00 50.00 L 550.00 50.00" class="trigger-line"/>
    <path d="M 50.00 175.00 L 50.00 175.00 L 50.00 175.00 L 98.50 175.00 L 98.50 175.00 L 104.83 175.00 L 104.83 175.00 L 108.26 175.00 L 108.26 125.00 L 108.26 125.00 L 108.26 125.00 L 113.39 125.00 L 113.39 175.00 L 113.39 175.00 L 113.39 175.00 L 161.77 175.00 L 161.77 175.00 L 167.93 175.00 L 167.93 175.00 L 171.48 175.00 L 171.48 125.00 L 171.48 125.00 L 171.48 125.00 L 176.61 125.00 L 176.61 175.00 L 176.61 175.00 L 176.61 175.00 L 224.52 175.00 L 224.52 175.00 L 230.85 175.00 L 230.85 175.00 L 234.11 175.00 L 234.11 125.00 L 234.11 125.00 L 234.11 125.00 L 239.24 125.00 L 239.24 175.00 L 239.24 175.00 L 239.24 175.00 L 287.28 175.00 L 287.28 175.00 L 293.43 175.00 L 293.43 175.00 L 296.85 175.00 L 296.85 125.00 L 296.85 125.00 L 296.85 125.00 L 301.99 125.00 L 301.99 175.00 L 301.99 175.00 L 301.99 175.00 L 349.69 175.00 L 349.69 175.00 L 355.85 175.00 L 355.85 175.00 L 359.18 175.00 L 359.18 125.00 L 359.18 125.00 L 359.18 125.00 L 364.31 125.00 L 364.31 175.00 L 364.31 175.00 L 364.31 175.00 L 411.76 175.00 L 411.76 175.00 L 418.09 175.00 L 418.09 175.00 L 421.16 175.00 L 421.16 125.00 L 421.16 125.00 L 421.16 125.00 L 426.29 125.00 L 426.29 175.00 L 426.29 175.00 L 426.29 175.00 L 473.83 175.00 L 473.83 175.00 L 479.99 175.00 L 479.99 175.00 L 483.23 175.00 L 483.23 125.00 L 483.23 125.00 L 483.23 125.00 L 488.36 125.00 L 488.36 175.00 L 488.36 175.00 L 488.36 175.00 L 535.56 175.00 L 535.56 175.00 L 541.72 175.00 L 541.72 175.00 L 544.87 175.00 L 544.87 125.00 L 544.87 125.00 L 544.87 125.00 L 550.00 125.00 L 550.00 175.00 L 550.00 175.00 L 550.00 175.00" class="spark-line"/>
    <line x1="98.50364726361181" y1="112.5" x2="113.39193805978755" y2="112.5" class="timing-arrow"/>
    <text x="105.94779266169968" y="107.5" text-anchor="middle" class="timing-label">8.7ms</text>
    <text x="15" y="75.0" class="label" fill="#2E86C1">TRIGGER</text>
    <text x="15" y="150.0" class="label" fill="#E74C3C">SPARK</text>
    <text x="300.0" y="20" text-anchor="middle" class="title">~800 RPM - Ignition Timing</text>
    <text x="50.0" y="215" text-anchor="middle" class="label">0</text>
    <text x="175.0" y="215" text-anchor="middle" class="label">73</text>
    <text x="300.0" y="215" text-anchor="middle" class="label">146</text>
    <text x="425.0" y="215" text-anchor="middle" class="label">219</text>
    <text x="550.0" y="215" text-anchor="middle" class="label">292</text>
    <text x="300.0" y="235" text-anchor="middle" class="label">Time (ms)</text>
    <text x="550" y="35" text-anchor="end" class="label" fill="#666">8 cycles shown</text>
  </svg>
